<mxfile host="app.diagrams.net" modified="2023-05-04T17:35:44.751Z" agent="Mozilla/5.0 (Macintosh; Intel Mac OS X 10_15_7) AppleWebKit/537.36 (KHTML, like Gecko) Chrome/112.0.0.0 Safari/537.36" version="21.1.7" etag="Ypw3EmC0sMIr0Bn2Xyoq" type="github">
  <diagram name="Page-1" id="RFm_as9gw-ziZraM_-jz">
    <mxGraphModel>
      <root>
        <mxCell id="0" />
        <mxCell id="1" parent="0" />
      </root>
    </mxGraphModel>
  </diagram>
</mxfile>
